<svg width="81" height="53" fill="none" xmlns="http://www.w3.org/2000/svg"><path d="M17.8 23.4c4.8 0 8.733 1.4 11.8 4.2 3.2 2.667 4.8 6.067 4.8 10.2 0 4.133-1.667 7.6-5 10.4-3.2 2.8-7.267 4.2-12.2 4.2-5.2 0-9.4-1.467-12.6-4.4C1.533 44.933 0 40.867 0 35.8 0 29.667 2 23.067 6 16 10.133 8.8 15.067 3.533 20.8.2l5.8 5.2-.4.8c-2.133 1.333-4.067 3.8-5.8 7.4-1.733 3.467-2.667 6.733-2.8 9.8h.2zm45.8-.2c4.8 0 8.733 1.4 11.8 4.2 3.2 2.667 4.8 6.067 4.8 10.2 0 4.133-1.667 7.6-5 10.4-3.2 2.8-7.267 4.2-12.2 4.2-5.2 0-9.4-1.467-12.6-4.4-3.067-3.067-4.6-7.133-4.6-12.2 0-6.133 2-12.733 6-19.8C55.933 8.6 60.867 3.333 66.6 0l5.8 5.2-.4.8c-2.133 1.333-4.067 3.8-5.8 7.4-1.733 3.467-2.667 6.733-2.8 9.8h.2z" fill="#08D6C8"/></svg>